<svg xmlns="http://www.w3.org/2000/svg" viewBox="0 0 1200 630" width="1200" height="630" role="img" aria-label="Geometric leaf">
  <rect width="1200" height="630" fill="#131316"/>
  <g stroke="#1B1B1F" stroke-width="1">
    <line x1="0" y1="210" x2="1200" y2="210"/>
    <line x1="0" y1="420" x2="1200" y2="420"/>
    <line x1="300" y1="0" x2="300" y2="630"/>
    <line x1="600" y1="0" x2="600" y2="630"/>
    <line x1="900" y1="0" x2="900" y2="630"/>
  </g>
  <g stroke="#34343A" stroke-width="2" fill="none">
    <path d="M40 64 V40 H64"/>
    <path d="M1136 40 H1160 V64"/>
    <path d="M40 566 V590 H64"/>
    <path d="M1160 566 V590 H1136"/>
  </g>
  <!-- geometric leaf (vesica) with veins -->
  <path d="M 600 140 A 160 160 0 0 1 600 440 A 160 160 0 0 1 600 140 Z" fill="#2A1F0E" stroke="#F59E0B" stroke-width="7"/>
  <line x1="600" y1="178" x2="600" y2="402" stroke="#F59E0B" stroke-width="5"/>
  <g stroke="#F59E0B" stroke-width="4">
    <line x1="600" y1="240" x2="646" y2="206"/>
    <line x1="600" y1="300" x2="654" y2="262"/>
    <line x1="600" y1="360" x2="648" y2="326"/>
    <line x1="600" y1="240" x2="554" y2="206"/>
    <line x1="600" y1="300" x2="546" y2="262"/>
    <line x1="600" y1="360" x2="552" y2="326"/>
  </g>
  <!-- stem -->
  <line x1="600" y1="440" x2="600" y2="478" stroke="#F59E0B" stroke-width="6"/>
  <text x="84" y="576" font-family="Consolas, 'Cascadia Mono', ui-monospace, monospace" font-size="19" letter-spacing="5" fill="#8A8A86">POWERDOZE BLOG</text>
  <text x="1116" y="576" text-anchor="end" font-family="Consolas, 'Cascadia Mono', ui-monospace, monospace" font-size="19" letter-spacing="5" fill="#F59E0B">NO.12</text>
</svg>
