<svg xmlns="http://www.w3.org/2000/svg" viewBox="0 0 1200 630" width="1200" height="630" role="img" aria-label="Power gauge with needle">
  <rect width="1200" height="630" fill="#131316"/>
  <g stroke="#1B1B1F" stroke-width="1">
    <line x1="0" y1="210" x2="1200" y2="210"/>
    <line x1="0" y1="420" x2="1200" y2="420"/>
    <line x1="300" y1="0" x2="300" y2="630"/>
    <line x1="600" y1="0" x2="600" y2="630"/>
    <line x1="900" y1="0" x2="900" y2="630"/>
  </g>
  <g stroke="#34343A" stroke-width="2" fill="none">
    <path d="M40 64 V40 H64"/>
    <path d="M1136 40 H1160 V64"/>
    <path d="M40 566 V590 H64"/>
    <path d="M1160 566 V590 H1136"/>
  </g>
  <!-- gauge arc with ticks -->
  <path d="M 440 400 A 160 160 0 0 1 760 400" fill="none" stroke="#5E5E5C" stroke-width="10"/>
  <g stroke="#5E5E5C" stroke-width="6">
    <line x1="440" y1="400" x2="466" y2="400"/>
    <line x1="486.9" y1="286.9" x2="505.3" y2="305.3"/>
    <line x1="600" y1="240" x2="600" y2="266"/>
    <line x1="713.1" y1="286.9" x2="694.7" y2="305.3"/>
    <line x1="760" y1="400" x2="734" y2="400"/>
  </g>
  <!-- needle -->
  <line x1="600" y1="400" x2="688" y2="312" stroke="#F59E0B" stroke-width="9"/>
  <circle cx="600" cy="400" r="16" fill="#2A1F0E" stroke="#F59E0B" stroke-width="7"/>
  <text x="84" y="576" font-family="Consolas, 'Cascadia Mono', ui-monospace, monospace" font-size="19" letter-spacing="5" fill="#8A8A86">POWERDOZE BLOG</text>
  <text x="1116" y="576" text-anchor="end" font-family="Consolas, 'Cascadia Mono', ui-monospace, monospace" font-size="19" letter-spacing="5" fill="#F59E0B">NO.07</text>
</svg>
