<svg xmlns="http://www.w3.org/2000/svg" viewBox="0 0 1200 630" width="1200" height="630" role="img" aria-label="Comparison matrix with one highlighted cell">
  <rect width="1200" height="630" fill="#131316"/>
  <g stroke="#1B1B1F" stroke-width="1">
    <line x1="0" y1="210" x2="1200" y2="210"/>
    <line x1="0" y1="420" x2="1200" y2="420"/>
    <line x1="300" y1="0" x2="300" y2="630"/>
    <line x1="600" y1="0" x2="600" y2="630"/>
    <line x1="900" y1="0" x2="900" y2="630"/>
  </g>
  <g stroke="#34343A" stroke-width="2" fill="none">
    <path d="M40 64 V40 H64"/>
    <path d="M1136 40 H1160 V64"/>
    <path d="M40 566 V590 H64"/>
    <path d="M1160 566 V590 H1136"/>
  </g>
  <!-- 3x3 comparison matrix -->
  <g stroke="#5E5E5C" stroke-width="6" fill="none">
    <rect x="420" y="130" width="100" height="100" rx="6"/>
    <rect x="550" y="130" width="100" height="100" rx="6"/>
    <rect x="680" y="130" width="100" height="100" rx="6"/>
    <rect x="420" y="260" width="100" height="100" rx="6"/>
    <rect x="550" y="260" width="100" height="100" rx="6"/>
    <rect x="680" y="260" width="100" height="100" rx="6"/>
    <rect x="420" y="390" width="100" height="100" rx="6"/>
    <rect x="550" y="390" width="100" height="100" rx="6"/>
  </g>
  <rect x="446" y="156" width="48" height="48" fill="#26262A"/>
  <rect x="576" y="286" width="48" height="48" fill="#26262A"/>
  <rect x="706" y="416" width="48" height="48" fill="#26262A"/>
  <rect x="680" y="390" width="100" height="100" rx="6" fill="#2A1F0E" stroke="#F59E0B" stroke-width="7"/>
  <path d="M705 440 L725 460 L757 418" fill="none" stroke="#F59E0B" stroke-width="8"/>
  <text x="84" y="576" font-family="Consolas, 'Cascadia Mono', ui-monospace, monospace" font-size="19" letter-spacing="5" fill="#8A8A86">POWERDOZE BLOG</text>
  <text x="1116" y="576" text-anchor="end" font-family="Consolas, 'Cascadia Mono', ui-monospace, monospace" font-size="19" letter-spacing="5" fill="#F59E0B">NO.03</text>
</svg>
