<svg xmlns="http://www.w3.org/2000/svg" viewBox="0 0 1200 630" width="1200" height="630" role="img" aria-label="GPU die with highlighted core">
  <rect width="1200" height="630" fill="#131316"/>
  <g stroke="#1B1B1F" stroke-width="1">
    <line x1="0" y1="210" x2="1200" y2="210"/>
    <line x1="0" y1="420" x2="1200" y2="420"/>
    <line x1="300" y1="0" x2="300" y2="630"/>
    <line x1="600" y1="0" x2="600" y2="630"/>
    <line x1="900" y1="0" x2="900" y2="630"/>
  </g>
  <g stroke="#34343A" stroke-width="2" fill="none">
    <path d="M40 64 V40 H64"/>
    <path d="M1136 40 H1160 V64"/>
    <path d="M40 566 V590 H64"/>
    <path d="M1160 566 V590 H1136"/>
  </g>
  <!-- GPU package with pins -->
  <rect x="470" y="170" width="260" height="240" rx="10" fill="none" stroke="#5E5E5C" stroke-width="6"/>
  <g stroke="#5E5E5C" stroke-width="6">
    <line x1="430" y1="210" x2="470" y2="210"/>
    <line x1="430" y1="260" x2="470" y2="260"/>
    <line x1="430" y1="310" x2="470" y2="310"/>
    <line x1="430" y1="360" x2="470" y2="360"/>
    <line x1="730" y1="210" x2="770" y2="210"/>
    <line x1="730" y1="260" x2="770" y2="260"/>
    <line x1="730" y1="310" x2="770" y2="310"/>
    <line x1="730" y1="360" x2="770" y2="360"/>
    <line x1="520" y1="130" x2="520" y2="170"/>
    <line x1="600" y1="130" x2="600" y2="170"/>
    <line x1="680" y1="130" x2="680" y2="170"/>
    <line x1="520" y1="410" x2="520" y2="450"/>
    <line x1="600" y1="410" x2="600" y2="450"/>
    <line x1="680" y1="410" x2="680" y2="450"/>
  </g>
  <!-- die core -->
  <rect x="535" y="230" width="130" height="120" rx="6" fill="#2A1F0E" stroke="#F59E0B" stroke-width="7"/>
  <line x1="535" y1="290" x2="665" y2="290" stroke="#F59E0B" stroke-width="4"/>
  <line x1="600" y1="230" x2="600" y2="350" stroke="#F59E0B" stroke-width="4"/>
  <text x="84" y="576" font-family="Consolas, 'Cascadia Mono', ui-monospace, monospace" font-size="19" letter-spacing="5" fill="#8A8A86">POWERDOZE BLOG</text>
  <text x="1116" y="576" text-anchor="end" font-family="Consolas, 'Cascadia Mono', ui-monospace, monospace" font-size="19" letter-spacing="5" fill="#F59E0B">NO.05</text>
</svg>
