<svg xmlns="http://www.w3.org/2000/svg" viewBox="0 0 1200 630" width="1200" height="630" role="img" aria-label="Four signals converging into one decision node">
  <rect width="1200" height="630" fill="#131316"/>
  <g stroke="#1B1B1F" stroke-width="1">
    <line x1="0" y1="210" x2="1200" y2="210"/>
    <line x1="0" y1="420" x2="1200" y2="420"/>
    <line x1="300" y1="0" x2="300" y2="630"/>
    <line x1="600" y1="0" x2="600" y2="630"/>
    <line x1="900" y1="0" x2="900" y2="630"/>
  </g>
  <g stroke="#34343A" stroke-width="2" fill="none">
    <path d="M40 64 V40 H64"/>
    <path d="M1136 40 H1160 V64"/>
    <path d="M40 566 V590 H64"/>
    <path d="M1160 566 V590 H1136"/>
  </g>
  <!-- four signal lines converging into a node, one decision line out -->
  <g stroke="#5E5E5C" stroke-width="6" fill="none">
    <path d="M300 150 H480 L660 262"/>
    <path d="M300 240 H500 L660 278"/>
    <path d="M300 340 H500 L660 302"/>
    <path d="M300 430 H480 L660 318"/>
  </g>
  <circle cx="690" cy="290" r="34" fill="#2A1F0E" stroke="#F59E0B" stroke-width="7"/>
  <line x1="724" y1="290" x2="900" y2="290" stroke="#F59E0B" stroke-width="7"/>
  <path d="M884 274 L912 290 L884 306" fill="none" stroke="#F59E0B" stroke-width="7"/>
  <circle cx="300" cy="150" r="8" fill="#5E5E5C"/>
  <circle cx="300" cy="240" r="8" fill="#5E5E5C"/>
  <circle cx="300" cy="340" r="8" fill="#5E5E5C"/>
  <circle cx="300" cy="430" r="8" fill="#5E5E5C"/>
  <text x="84" y="576" font-family="Consolas, 'Cascadia Mono', ui-monospace, monospace" font-size="19" letter-spacing="5" fill="#8A8A86">POWERDOZE BLOG</text>
  <text x="1116" y="576" text-anchor="end" font-family="Consolas, 'Cascadia Mono', ui-monospace, monospace" font-size="19" letter-spacing="5" fill="#F59E0B">NO.01</text>
</svg>
