<svg xmlns="http://www.w3.org/2000/svg" viewBox="0 0 1200 630" width="1200" height="630" role="img" aria-label="Crescent moon over a timeline">
  <rect width="1200" height="630" fill="#131316"/>
  <g stroke="#1B1B1F" stroke-width="1">
    <line x1="0" y1="210" x2="1200" y2="210"/>
    <line x1="0" y1="420" x2="1200" y2="420"/>
    <line x1="300" y1="0" x2="300" y2="630"/>
    <line x1="600" y1="0" x2="600" y2="630"/>
    <line x1="900" y1="0" x2="900" y2="630"/>
  </g>
  <g stroke="#34343A" stroke-width="2" fill="none">
    <path d="M40 64 V40 H64"/>
    <path d="M1136 40 H1160 V64"/>
    <path d="M40 566 V590 H64"/>
    <path d="M1160 566 V590 H1136"/>
  </g>
  <!-- crescent moon (cutout) -->
  <circle cx="580" cy="260" r="115" fill="#2A1F0E" stroke="#F59E0B" stroke-width="7"/>
  <circle cx="638" cy="232" r="100" fill="#131316"/>
  <!-- timeline with ticks, one highlighted -->
  <line x1="320" y1="470" x2="880" y2="470" stroke="#5E5E5C" stroke-width="6"/>
  <g stroke="#5E5E5C" stroke-width="6">
    <line x1="380" y1="454" x2="380" y2="486"/>
    <line x1="480" y1="454" x2="480" y2="486"/>
    <line x1="580" y1="454" x2="580" y2="486"/>
    <line x1="780" y1="454" x2="780" y2="486"/>
  </g>
  <line x1="680" y1="446" x2="680" y2="494" stroke="#F59E0B" stroke-width="8"/>
  <text x="84" y="576" font-family="Consolas, 'Cascadia Mono', ui-monospace, monospace" font-size="19" letter-spacing="5" fill="#8A8A86">POWERDOZE BLOG</text>
  <text x="1116" y="576" text-anchor="end" font-family="Consolas, 'Cascadia Mono', ui-monospace, monospace" font-size="19" letter-spacing="5" fill="#F59E0B">NO.02</text>
</svg>
