<svg xmlns="http://www.w3.org/2000/svg" viewBox="0 0 1200 630" width="1200" height="630" role="img" aria-label="Fan blades with fading sound waves">
  <rect width="1200" height="630" fill="#131316"/>
  <g stroke="#1B1B1F" stroke-width="1">
    <line x1="0" y1="210" x2="1200" y2="210"/>
    <line x1="0" y1="420" x2="1200" y2="420"/>
    <line x1="300" y1="0" x2="300" y2="630"/>
    <line x1="600" y1="0" x2="600" y2="630"/>
    <line x1="900" y1="0" x2="900" y2="630"/>
  </g>
  <g stroke="#34343A" stroke-width="2" fill="none">
    <path d="M40 64 V40 H64"/>
    <path d="M1136 40 H1160 V64"/>
    <path d="M40 566 V590 H64"/>
    <path d="M1160 566 V590 H1136"/>
  </g>
  <!-- stylized fan: three thick arc blades -->
  <circle cx="540" cy="290" r="106" fill="none" stroke="#F59E0B" stroke-width="34" stroke-dasharray="130 92"/>
  <circle cx="540" cy="290" r="26" fill="#2A1F0E" stroke="#F59E0B" stroke-width="7"/>
  <!-- fading sound waves -->
  <path d="M 740 240 A 72 72 0 0 1 740 340" fill="none" stroke="#5E5E5C" stroke-width="7"/>
  <path d="M 790 212 A 112 112 0 0 1 790 368" fill="none" stroke="#34343A" stroke-width="7" stroke-dasharray="18 14"/>
  <text x="84" y="576" font-family="Consolas, 'Cascadia Mono', ui-monospace, monospace" font-size="19" letter-spacing="5" fill="#8A8A86">POWERDOZE BLOG</text>
  <text x="1116" y="576" text-anchor="end" font-family="Consolas, 'Cascadia Mono', ui-monospace, monospace" font-size="19" letter-spacing="5" fill="#F59E0B">NO.06</text>
</svg>
